<svg id="Layer_1" data-name="Layer 1" xmlns="http://www.w3.org/2000/svg" xmlns:xlink="http://www.w3.org/1999/xlink" viewBox="0 0 65.27 31.84"><defs><linearGradient id="linear-gradient" x1="70.02" y1="26.66" x2="70.02" y2="26.66" gradientUnits="userSpaceOnUse"><stop offset="0" stop-color="#ffc321"/><stop offset="1" stop-color="#fe3d12"/></linearGradient><linearGradient id="linear-gradient-2" x1="60.28" y1="3.75" x2="60.28" y2="26.66" xlink:href="#linear-gradient"/></defs><path d="M81.72,16a2.44,2.44,0,0,1-.9-.17,2.28,2.28,0,0,1-1.41-2.15h0a2.29,2.29,0,0,1,1.42-2.15,2.39,2.39,0,0,1,.94-.18,3,3,0,0,1,.63.07,2.56,2.56,0,0,1,.51.19,2.25,2.25,0,0,1,.42.3,2.43,2.43,0,0,1,.34.38l-.94.72a1.37,1.37,0,0,0-.42-.38,1,1,0,0,0-.55-.14,1,1,0,0,0-.43.09,1.07,1.07,0,0,0-.34.25,1.19,1.19,0,0,0-.22.38,1.39,1.39,0,0,0-.08.46h0a1.45,1.45,0,0,0,.08.47,1.09,1.09,0,0,0,.22.38.94.94,0,0,0,.34.25.88.88,0,0,0,.43.1,1.46,1.46,0,0,0,.31,0,1.09,1.09,0,0,0,.27-.11,1.74,1.74,0,0,0,.22-.18,1.49,1.49,0,0,0,.21-.22l.93.67a3.34,3.34,0,0,1-.35.4,1.72,1.72,0,0,1-.43.32,2.25,2.25,0,0,1-.53.21A2.73,2.73,0,0,1,81.72,16Z" transform="translate(-46.75 -3.75)" style="fill:#fe3e13"/><path d="M84.26,11.4H85.5v4.48H84.26Z" transform="translate(-46.75 -3.75)" style="fill:#fe3e13"/><path d="M87.41,12.49H86.07V11.4H90v1.09H88.66v3.39H87.41Z" transform="translate(-46.75 -3.75)" style="fill:#fe3e13"/><path d="M91.83,14.2l-1.7-2.8h1.41L92.47,13l.92-1.63h1.39l-1.7,2.79v1.69H91.83Z" transform="translate(-46.75 -3.75)" style="fill:#fe3e13"/><path d="M79.56,16.74H80.8v3.39H83v1.09H79.56Z" transform="translate(-46.75 -3.75)" style="fill:#fe3e13"/><path d="M83.53,16.74h1.24v4.48H83.53Z" transform="translate(-46.75 -3.75)" style="fill:#fe3e13"/><path d="M87.88,21.31a2.74,2.74,0,0,1-1-.17,2.1,2.1,0,0,1-.77-.48,2.26,2.26,0,0,1-.52-.73,2.39,2.39,0,0,1-.18-.94h0a2.31,2.31,0,0,1,.18-.91,2.3,2.3,0,0,1,1.26-1.24,2.56,2.56,0,0,1,1-.18,2.67,2.67,0,0,1,1,.18,2.58,2.58,0,0,1,.79.48l-.73.87a1.79,1.79,0,0,0-.5-.31,1.46,1.46,0,0,0-.58-.11,1.13,1.13,0,0,0-.45.09,1.22,1.22,0,0,0-.36.27,1.3,1.3,0,0,0-.25.39,1.27,1.27,0,0,0-.08.48h0a1.39,1.39,0,0,0,.09.5,1,1,0,0,0,.25.39,1.22,1.22,0,0,0,.38.26,1.3,1.3,0,0,0,.49.09,1.25,1.25,0,0,0,.72-.19v-.54h-.88V18.6h2.06v2a3.32,3.32,0,0,1-.85.49A2.9,2.9,0,0,1,87.88,21.31Z" transform="translate(-46.75 -3.75)" style="fill:#fe3e13"/><path d="M90.51,16.74h1.24v1.68h1.59V16.74h1.24v4.48H93.34v-1.7H91.75v1.7H90.51Z" transform="translate(-46.75 -3.75)" style="fill:#fe3e13"/><path d="M96.47,17.83H95.13V16.74h3.92v1.09H97.71v3.39H96.47Z" transform="translate(-46.75 -3.75)" style="fill:#fe3e13"/><path d="M99.59,16.74h3.6V17.8h-2.37v.68H103v1h-2.14v.71h2.4v1.06H99.59Z" transform="translate(-46.75 -3.75)" style="fill:#fe3e13"/><path d="M103.86,16.74H106a2.77,2.77,0,0,1,.88.13,1.47,1.47,0,0,1,.58.36,1.35,1.35,0,0,1,.4,1h0a1.39,1.39,0,0,1-.25.86,1.58,1.58,0,0,1-.67.52L108,21.22h-1.44l-.9-1.36h-.54v1.36h-1.24Zm2.06,2.15a.79.79,0,0,0,.49-.14.51.51,0,0,0,.17-.39h0a.46.46,0,0,0-.18-.4.79.79,0,0,0-.49-.13h-.81v1.07Z" transform="translate(-46.75 -3.75)" style="fill:#fe3e13"/><path d="M110.21,21.29a3.58,3.58,0,0,1-1.14-.18,2.75,2.75,0,0,1-.95-.56l.69-.83a2.25,2.25,0,0,0,1.45.54.8.8,0,0,0,.38-.08.25.25,0,0,0,.13-.23h0a.21.21,0,0,0,0-.12.26.26,0,0,0-.12-.11,1.3,1.3,0,0,0-.23-.1l-.37-.1a5.92,5.92,0,0,1-.67-.18,2.37,2.37,0,0,1-.53-.25,1.33,1.33,0,0,1-.36-.39,1.16,1.16,0,0,1-.13-.58h0a1.4,1.4,0,0,1,.12-.58,1.22,1.22,0,0,1,.34-.45,1.53,1.53,0,0,1,.55-.3,2.28,2.28,0,0,1,.72-.1,3.28,3.28,0,0,1,1,.15,2.65,2.65,0,0,1,.81.44l-.62.88a2.71,2.71,0,0,0-.63-.33,2,2,0,0,0-.62-.11.63.63,0,0,0-.34.08.28.28,0,0,0-.11.21h0a.23.23,0,0,0,0,.14.32.32,0,0,0,.12.1l.23.1.38.1a5.41,5.41,0,0,1,.7.19,2,2,0,0,1,.53.27,1.23,1.23,0,0,1,.33.39,1.27,1.27,0,0,1,.11.54h0a1.33,1.33,0,0,1-.13.61,1.37,1.37,0,0,1-.37.46,1.74,1.74,0,0,1-.56.29A2.91,2.91,0,0,1,110.21,21.29Z" transform="translate(-46.75 -3.75)" style="fill:#fe3e13"/><path d="M81.72,26.65a2.26,2.26,0,0,1-.9-.18,2.15,2.15,0,0,1-.74-.48,2.39,2.39,0,0,1-.49-.74,2.32,2.32,0,0,1-.18-.92h0a2.27,2.27,0,0,1,.18-.91,2.22,2.22,0,0,1,.49-.74,2.15,2.15,0,0,1,.75-.5,2.39,2.39,0,0,1,.94-.18,2.48,2.48,0,0,1,.63.07,2.07,2.07,0,0,1,.51.19,1.6,1.6,0,0,1,.42.3,2.37,2.37,0,0,1,.34.37l-.94.73a1.55,1.55,0,0,0-.42-.39,1.07,1.07,0,0,0-.55-.14.88.88,0,0,0-.43.1.94.94,0,0,0-.34.25,1.09,1.09,0,0,0-.22.38,1.34,1.34,0,0,0-.08.46h0a1.5,1.5,0,0,0,.08.47,1.19,1.19,0,0,0,.22.38.94.94,0,0,0,.34.25,1,1,0,0,0,.43.09,1.48,1.48,0,0,0,.31,0,1.11,1.11,0,0,0,.27-.12,1.63,1.63,0,0,0,.22-.17,2.23,2.23,0,0,0,.21-.22l.93.67a4.36,4.36,0,0,1-.35.4,2,2,0,0,1-.43.32,2.25,2.25,0,0,1-.53.21A2.73,2.73,0,0,1,81.72,26.65Z" transform="translate(-46.75 -3.75)" style="fill:#fe3e13"/><path d="M84.23,22.08h1.24v1.68h1.59V22.08H88.3v4.48H87.06v-1.7H85.47v1.7H84.23Z" transform="translate(-46.75 -3.75)" style="fill:#fe3e13"/><path d="M91.11,26.64a2.84,2.84,0,0,1-.86-.12,1.66,1.66,0,0,1-.66-.38,1.72,1.72,0,0,1-.41-.64,2.72,2.72,0,0,1-.14-.91V22.08H90.3v2.49a1,1,0,0,0,.23.72.78.78,0,0,0,.59.23.81.81,0,0,0,.6-.22,1,1,0,0,0,.22-.7V22.08h1.27v2.48a2.65,2.65,0,0,1-.15.94,1.54,1.54,0,0,1-.43.64,1.69,1.69,0,0,1-.65.38A3,3,0,0,1,91.11,26.64Z" transform="translate(-46.75 -3.75)" style="fill:#fe3e13"/><path d="M93.94,22.08h2.12a2.45,2.45,0,0,1,.87.13,1.4,1.4,0,0,1,.59.36,1.38,1.38,0,0,1,.39,1h0a1.39,1.39,0,0,1-.25.86A1.6,1.6,0,0,1,97,25l1.07,1.56H96.63l-.9-1.36h-.55v1.36H93.94ZM96,24.23a.72.72,0,0,0,.49-.15.45.45,0,0,0,.18-.38h0a.45.45,0,0,0-.18-.4.82.82,0,0,0-.5-.14h-.81v1.08Z" transform="translate(-46.75 -3.75)" style="fill:#fe3e13"/><path d="M100.69,26.65a2.26,2.26,0,0,1-.9-.18,2.11,2.11,0,0,1-.73-.48,2.22,2.22,0,0,1-.49-.74,2.32,2.32,0,0,1-.18-.92h0a2.46,2.46,0,0,1,.17-.91,2.25,2.25,0,0,1,.5-.74,2.11,2.11,0,0,1,.74-.5,2.66,2.66,0,0,1,1.57-.11,2.14,2.14,0,0,1,.52.19,2,2,0,0,1,.42.3,2.3,2.3,0,0,1,.33.37l-.93.73a1.91,1.91,0,0,0-.42-.39,1.08,1.08,0,0,0-.56-.14.88.88,0,0,0-.43.1.9.9,0,0,0-.33.25,1.1,1.1,0,0,0-.23.38,1.34,1.34,0,0,0-.08.46h0a1.5,1.5,0,0,0,.08.47,1.21,1.21,0,0,0,.23.38.9.9,0,0,0,.33.25,1,1,0,0,0,.43.09,1.58,1.58,0,0,0,.32,0,1.23,1.23,0,0,0,.26-.12,1.18,1.18,0,0,0,.22-.17,2.23,2.23,0,0,0,.21-.22l.94.67c-.11.14-.23.27-.35.4a2.29,2.29,0,0,1-.43.32,2.17,2.17,0,0,1-.54.21A2.73,2.73,0,0,1,100.69,26.65Z" transform="translate(-46.75 -3.75)" style="fill:#fe3e13"/><path d="M103.21,22.08h1.24v1.68H106V22.08h1.24v4.48H106v-1.7h-1.59v1.7h-1.24Z" transform="translate(-46.75 -3.75)" style="fill:#fe3e13"/><path d="M68,27.55H52.61a1,1,0,0,0,0,2.06H68a1,1,0,1,0,0-2.06Z" transform="translate(-46.75 -3.75)" style="fill:#fe3e13"/><path d="M65.28,30.54H55.36a1,1,0,0,0,0,2.06h9.92a1,1,0,0,0,0-2.06Z" transform="translate(-46.75 -3.75)" style="fill:#fe3e13"/><path d="M62.2,33.53H58.36a1,1,0,0,0,0,2.06H62.2a1,1,0,0,0,0-2.06Z" transform="translate(-46.75 -3.75)" style="fill:#fe3e13"/><path d="M70,26.66" transform="translate(-46.75 -3.75)" style="fill:url(#linear-gradient)"/><path d="M73.81,17.28a13.41,13.41,0,0,1-3.45,9l-.06.08a1,1,0,0,1-.72.29,1,1,0,0,1-1-1,1.05,1.05,0,0,1,.21-.62l.12-.12h0A11.52,11.52,0,1,0,51.76,25a1,1,0,0,1,.23.65,1,1,0,0,1-1,1,1,1,0,0,1-.77-.36A13.41,13.41,0,0,1,46.76,17a13.53,13.53,0,0,1,27.05.26Z" transform="translate(-46.75 -3.75)" style="fill:url(#linear-gradient-2)"/><path d="M65.7,21.52h.1v-.61h-.1v-.16h.1v-.62h-.1V20h.1v-.61h-.1V19.2h.1v-.61h-.1v-.16h.1v-.62H65l1.24-.94H65.3v-.33H63.07v.33h-.94l1.24.94h-.81v.62h.09v.16h-.09v.61h.09v.16h-.09V20h.09v.16h-.09v.62h.09v.16h-.09v.61h.09v.16h-.08v.61h.08v.17h-.08v.61h.08v.16h-.08v.61h.08V24h-.09v.53H62V22.78h-.21V21.2h-.42v-4h-.2V15.8H61v-.88h-.16v-.13h-.1v-.13h-.24l-.13-1.16h-.13v-.93h-.09v.93H60l-.12,1.16h-.24v.13h-.1v.13h-.18v.88h-.19v1.41H59v4h-.38v1.58h-.23v1.75h-.45c0-.28,0-.64,0-1.1a8.8,8.8,0,0,0-1.07-4.14h.23a.12.12,0,0,0,.11-.12v-.11a.11.11,0,0,0-.11-.12h-.43a8,8,0,0,0-1.74-2.09V15.69h-.15v3.7h-.2a.12.12,0,0,0-.12.12v.11a.13.13,0,0,0,.12.12h.2v5.65h0v.28a.84.84,0,0,0,.84.83H65a.84.84,0,0,0,.84-.83v-.28h0v-.61h-.1v-.16h.1V24h-.1v-.16h.11v-.61H65.7v-.16h.11v-.61H65.7v-.17h.11v-.61H65.7Z" transform="translate(-46.75 -3.75)" style="fill:#231d1e"/></svg>